<svg xmlns="http://www.w3.org/2000/svg" viewBox="0 0 1020 430" role="img" aria-label="Shape operation with answer options">
  <rect width="1020" height="430" fill="#ffffff"/>
  <g fill="none" stroke="#111827" stroke-width="6" stroke-linecap="round" stroke-linejoin="round">
    <path d="M130 58 L180 92 L160 158 H100 L80 92 Z"/><circle cx="130" cy="110" r="18"/>
    <text x="240" y="127" font-family="Arial, sans-serif" font-size="54" fill="#111827" stroke="none">+</text>
    <line x1="325" y1="110" x2="425" y2="110"/><line x1="375" y1="60" x2="375" y2="160"/>
    <text x="485" y="127" font-family="Arial, sans-serif" font-size="54" fill="#111827" stroke="none">=</text>
    <text x="590" y="130" font-family="Arial, sans-serif" font-size="64" fill="#111827" stroke="none">?</text>
  </g>
  <g font-family="Arial, sans-serif" font-size="26" font-weight="700" text-anchor="middle" fill="#111827">
    <text x="150" y="380">A</text><text x="380" y="380">B</text><text x="610" y="380">C</text><text x="840" y="380">D</text>
  </g>
  <g fill="none" stroke="#111827" stroke-width="6" stroke-linecap="round" stroke-linejoin="round">
    <path d="M150 228 L200 262 L180 328 H120 L100 262 Z"/><circle cx="150" cy="280" r="18"/><line x1="100" y1="280" x2="200" y2="280"/><line x1="150" y1="230" x2="150" y2="330"/>
    <path d="M380 228 L430 262 L410 328 H350 L330 262 Z"/><line x1="330" y1="280" x2="430" y2="280"/><line x1="380" y1="230" x2="380" y2="330"/>
    <path d="M610 228 L660 262 L640 328 H580 L560 262 Z"/><circle cx="610" cy="280" r="18"/><line x1="560" y1="280" x2="660" y2="280"/>
    <path d="M840 228 L890 262 L870 328 H810 L790 262 Z"/><circle cx="840" cy="280" r="18"/><line x1="840" y1="230" x2="840" y2="330"/>
  </g>
</svg>
