<svg xmlns="http://www.w3.org/2000/svg" viewBox="0 0 1000 430" role="img" aria-label="Figure analogy with answer options">
  <rect width="1000" height="430" fill="#ffffff"/>
  <g fill="none" stroke="#111827" stroke-width="6" stroke-linecap="round" stroke-linejoin="round">
    <circle cx="115" cy="115" r="48"/><circle cx="55" cy="115" r="10" fill="#111827"/>
    <text x="215" y="130" font-family="Arial, sans-serif" font-size="44" fill="#111827" stroke="none">:</text>
    <circle cx="315" cy="115" r="48"/><line x1="267" y1="115" x2="363" y2="115"/><circle cx="315" cy="115" r="10" fill="#111827"/>
    <text x="420" y="130" font-family="Arial, sans-serif" font-size="44" fill="#111827" stroke="none">::</text>
    <path d="M535 65 L590 115 L535 165 L480 115 Z"/><circle cx="470" cy="115" r="10" fill="#111827"/>
    <text x="655" y="130" font-family="Arial, sans-serif" font-size="44" fill="#111827" stroke="none">:</text>
    <text x="735" y="136" font-family="Arial, sans-serif" font-size="64" fill="#111827" stroke="none">?</text>
  </g>
  <g font-family="Arial, sans-serif" font-size="26" font-weight="700" text-anchor="middle" fill="#111827">
    <text x="150" y="380">A</text><text x="380" y="380">B</text><text x="610" y="380">C</text><text x="840" y="380">D</text>
  </g>
  <g fill="none" stroke="#111827" stroke-width="6" stroke-linecap="round" stroke-linejoin="round">
    <path d="M150 225 L205 275 L150 325 L95 275 Z"/><circle cx="215" cy="275" r="10" fill="#111827"/>
    <path d="M380 225 L435 275 L380 325 L325 275 Z"/><line x1="325" y1="275" x2="435" y2="275"/>
    <path d="M610 225 L665 275 L610 325 L555 275 Z"/><line x1="555" y1="275" x2="665" y2="275"/><circle cx="610" cy="275" r="10" fill="#111827"/>
    <path d="M840 225 L895 275 L840 325 L785 275 Z"/><line x1="840" y1="225" x2="840" y2="325"/><circle cx="840" cy="275" r="10" fill="#111827"/>
  </g>
</svg>
